<mxfile host="Electron" agent="Mozilla/5.0 (X11; Linux x86_64) AppleWebKit/537.36 (KHTML, like Gecko) draw.io/24.7.17 Chrome/128.0.6613.36 Electron/32.0.1 Safari/537.36" version="24.7.17">
  <diagram name="Страница — 1" id="LqP0IWV-98wRrOKhGhP9">
    <mxGraphModel dx="2715" dy="1742" grid="1" gridSize="10" guides="1" tooltips="1" connect="1" arrows="1" fold="1" page="1" pageScale="1" pageWidth="1920" pageHeight="1200" math="0" shadow="0">
      <root>
        <mxCell id="0" />
        <mxCell id="1" parent="0" />
        <mxCell id="dfD37ds1Ss6bj-lWqaT2-2" value="&lt;i&gt;&amp;lt;&amp;lt; Abstract Class &amp;gt;&amp;gt;&lt;/i&gt;&lt;div&gt;NamedObject&lt;/div&gt;" style="swimlane;fontStyle=1;align=center;verticalAlign=top;childLayout=stackLayout;horizontal=1;startSize=40;horizontalStack=0;resizeParent=1;resizeParentMax=0;resizeLast=0;collapsible=1;marginBottom=0;whiteSpace=wrap;html=1;" vertex="1" parent="1">
          <mxGeometry x="610" y="30" width="200" height="180" as="geometry" />
        </mxCell>
        <mxCell id="dfD37ds1Ss6bj-lWqaT2-3" value="# name: String" style="text;strokeColor=none;fillColor=none;align=left;verticalAlign=top;spacingLeft=4;spacingRight=4;overflow=hidden;rotatable=0;points=[[0,0.5],[1,0.5]];portConstraint=eastwest;whiteSpace=wrap;html=1;" vertex="1" parent="dfD37ds1Ss6bj-lWqaT2-2">
          <mxGeometry y="40" width="200" height="26" as="geometry" />
        </mxCell>
        <mxCell id="dfD37ds1Ss6bj-lWqaT2-4" value="" style="line;strokeWidth=1;fillColor=none;align=left;verticalAlign=middle;spacingTop=-1;spacingLeft=3;spacingRight=3;rotatable=0;labelPosition=right;points=[];portConstraint=eastwest;strokeColor=inherit;" vertex="1" parent="dfD37ds1Ss6bj-lWqaT2-2">
          <mxGeometry y="66" width="200" height="8" as="geometry" />
        </mxCell>
        <mxCell id="dfD37ds1Ss6bj-lWqaT2-5" value="+ getName(): String&lt;div&gt;+ setName(String n): String&lt;/div&gt;&lt;div&gt;&lt;br&gt;&lt;/div&gt;&lt;div&gt;+ (a) toString(): String&lt;/div&gt;&lt;div&gt;+ (a) hashCode(): int&lt;/div&gt;&lt;div&gt;+ (a) equals(Object o): boolean&lt;/div&gt;" style="text;strokeColor=none;fillColor=none;align=left;verticalAlign=top;spacingLeft=4;spacingRight=4;overflow=hidden;rotatable=0;points=[[0,0.5],[1,0.5]];portConstraint=eastwest;whiteSpace=wrap;html=1;" vertex="1" parent="dfD37ds1Ss6bj-lWqaT2-2">
          <mxGeometry y="74" width="200" height="106" as="geometry" />
        </mxCell>
        <mxCell id="dfD37ds1Ss6bj-lWqaT2-100" style="edgeStyle=orthogonalEdgeStyle;rounded=0;orthogonalLoop=1;jettySize=auto;html=1;endArrow=diamondThin;endFill=0;" edge="1" parent="1" source="dfD37ds1Ss6bj-lWqaT2-7" target="dfD37ds1Ss6bj-lWqaT2-55">
          <mxGeometry relative="1" as="geometry">
            <Array as="points">
              <mxPoint x="890" y="320" />
              <mxPoint x="890" y="590" />
            </Array>
          </mxGeometry>
        </mxCell>
        <mxCell id="dfD37ds1Ss6bj-lWqaT2-7" value="&lt;div&gt;&lt;i&gt;&amp;lt;&amp;lt; Abstract Class &amp;gt;&amp;gt;&lt;/i&gt;&lt;/div&gt;Soul" style="swimlane;fontStyle=1;align=center;verticalAlign=top;childLayout=stackLayout;horizontal=1;startSize=40;horizontalStack=0;resizeParent=1;resizeParentMax=0;resizeLast=0;collapsible=1;marginBottom=0;whiteSpace=wrap;html=1;" vertex="1" parent="1">
          <mxGeometry x="930" y="8" width="280" height="330" as="geometry" />
        </mxCell>
        <mxCell id="dfD37ds1Ss6bj-lWqaT2-8" value="- state: SoulState&lt;div&gt;&lt;div&gt;# location: Location&lt;/div&gt;&lt;/div&gt;&lt;div&gt;&lt;br&gt;&lt;/div&gt;" style="text;strokeColor=none;fillColor=none;align=left;verticalAlign=top;spacingLeft=4;spacingRight=4;overflow=hidden;rotatable=0;points=[[0,0.5],[1,0.5]];portConstraint=eastwest;whiteSpace=wrap;html=1;" vertex="1" parent="dfD37ds1Ss6bj-lWqaT2-7">
          <mxGeometry y="40" width="280" height="44" as="geometry" />
        </mxCell>
        <mxCell id="dfD37ds1Ss6bj-lWqaT2-9" value="" style="line;strokeWidth=1;fillColor=none;align=left;verticalAlign=middle;spacingTop=-1;spacingLeft=3;spacingRight=3;rotatable=0;labelPosition=right;points=[];portConstraint=eastwest;strokeColor=inherit;" vertex="1" parent="dfD37ds1Ss6bj-lWqaT2-7">
          <mxGeometry y="84" width="280" height="8" as="geometry" />
        </mxCell>
        <mxCell id="dfD37ds1Ss6bj-lWqaT2-10" value="&lt;div&gt;+ Soul(String name, Location l, SoulState s)&lt;/div&gt;&lt;div&gt;+ Soul(String name, Location l)&lt;/div&gt;&lt;div&gt;+ Soul(String name)&lt;/div&gt;&lt;div&gt;+ Soul(String name, SoulState s)&lt;/div&gt;&lt;div&gt;&lt;br&gt;&lt;/div&gt;+ getState: SoulState&lt;div&gt;+ setState(SoulState s)&lt;/div&gt;&lt;div&gt;+ getLocation(): Location&lt;/div&gt;&lt;div&gt;+ setLocation(Location l)&lt;/div&gt;&lt;div&gt;+ setLocation(Location l, boolean log)&lt;/div&gt;&lt;div&gt;+ isAloneAtLocation(): boolean&lt;/div&gt;&lt;div&gt;+ printState()&lt;/div&gt;&lt;div&gt;&lt;br&gt;&lt;/div&gt;&lt;div&gt;+ (a) drink(BottleWithLiquid b)&lt;/div&gt;&lt;div&gt;+ (a) Soul clone()&lt;/div&gt;" style="text;strokeColor=none;fillColor=none;align=left;verticalAlign=top;spacingLeft=4;spacingRight=4;overflow=hidden;rotatable=0;points=[[0,0.5],[1,0.5]];portConstraint=eastwest;whiteSpace=wrap;html=1;" vertex="1" parent="dfD37ds1Ss6bj-lWqaT2-7">
          <mxGeometry y="92" width="280" height="238" as="geometry" />
        </mxCell>
        <mxCell id="dfD37ds1Ss6bj-lWqaT2-11" style="edgeStyle=orthogonalEdgeStyle;rounded=0;orthogonalLoop=1;jettySize=auto;html=1;" edge="1" parent="1" source="dfD37ds1Ss6bj-lWqaT2-10" target="dfD37ds1Ss6bj-lWqaT2-2">
          <mxGeometry relative="1" as="geometry" />
        </mxCell>
        <mxCell id="dfD37ds1Ss6bj-lWqaT2-30" style="edgeStyle=orthogonalEdgeStyle;rounded=0;orthogonalLoop=1;jettySize=auto;html=1;" edge="1" parent="1" source="dfD37ds1Ss6bj-lWqaT2-12" target="dfD37ds1Ss6bj-lWqaT2-7">
          <mxGeometry relative="1" as="geometry" />
        </mxCell>
        <mxCell id="dfD37ds1Ss6bj-lWqaT2-35" style="edgeStyle=orthogonalEdgeStyle;rounded=0;orthogonalLoop=1;jettySize=auto;html=1;dashed=1;dashPattern=12 12;endArrow=block;endFill=0;" edge="1" parent="1" source="dfD37ds1Ss6bj-lWqaT2-12" target="dfD37ds1Ss6bj-lWqaT2-31">
          <mxGeometry relative="1" as="geometry">
            <Array as="points">
              <mxPoint x="1280" y="720" />
              <mxPoint x="1280" y="503" />
            </Array>
          </mxGeometry>
        </mxCell>
        <mxCell id="dfD37ds1Ss6bj-lWqaT2-12" value="&lt;div&gt;Person&lt;/div&gt;" style="swimlane;fontStyle=1;align=center;verticalAlign=top;childLayout=stackLayout;horizontal=1;startSize=30;horizontalStack=0;resizeParent=1;resizeParentMax=0;resizeLast=0;collapsible=1;marginBottom=0;whiteSpace=wrap;html=1;" vertex="1" parent="1">
          <mxGeometry x="930" y="370" width="280" height="420" as="geometry" />
        </mxCell>
        <mxCell id="dfD37ds1Ss6bj-lWqaT2-13" value="- items: ArrayList&amp;lt;Item&amp;gt;&lt;div&gt;- wishItems: ArrayList&amp;lt;Item&amp;gt;&lt;/div&gt;&lt;div&gt;- itemsLimit: int&lt;/div&gt;" style="text;align=left;verticalAlign=top;spacingLeft=4;spacingRight=4;overflow=hidden;rotatable=0;points=[[0,0.5],[1,0.5]];portConstraint=eastwest;whiteSpace=wrap;html=1;" vertex="1" parent="dfD37ds1Ss6bj-lWqaT2-12">
          <mxGeometry y="30" width="280" height="80" as="geometry" />
        </mxCell>
        <mxCell id="dfD37ds1Ss6bj-lWqaT2-14" value="" style="line;strokeWidth=1;fillColor=none;align=left;verticalAlign=middle;spacingTop=-1;spacingLeft=3;spacingRight=3;rotatable=0;labelPosition=right;points=[];portConstraint=eastwest;strokeColor=inherit;" vertex="1" parent="dfD37ds1Ss6bj-lWqaT2-12">
          <mxGeometry y="110" width="280" height="8" as="geometry" />
        </mxCell>
        <mxCell id="dfD37ds1Ss6bj-lWqaT2-15" value="+ Person(String name, Location l, SoulState s, ArrayList&amp;lt;Item&amp;gt; items, int itemsLimit)&lt;div&gt;+ Person(String name, Location l, ArrayList&amp;lt;Item&amp;gt; items, int itemsLimit)&lt;/div&gt;&lt;div&gt;+ Person(String name, Location l, int itemsLimit)&lt;/div&gt;&lt;div&gt;+ Person(String name, int itemsLimit)&lt;/div&gt;&lt;div&gt;&lt;br&gt;&lt;/div&gt;&lt;div&gt;+ getItems(): ArrayList&amp;lt;Item&amp;gt;&lt;/div&gt;&lt;div&gt;+ takeItem(Item i): boolean&lt;/div&gt;&lt;div&gt;+ clearItems()&lt;/div&gt;&lt;div&gt;+ addAllItems(ArrayList&amp;lt;Item&amp;gt; newItems)&lt;/div&gt;&lt;div&gt;+ setLocation(Location l)&lt;/div&gt;&lt;div&gt;+ setLocation(Location l, boolean log)&lt;/div&gt;&lt;div&gt;+ getItemsLimit(): int&lt;/div&gt;&lt;div&gt;+ setItemsLimit()&lt;/div&gt;&lt;div&gt;+ getWishItems(): ArrayList&amp;lt;Item&amp;gt;&lt;/div&gt;&lt;div&gt;+ addWishItem(Item i)&lt;/div&gt;&lt;div&gt;+ lookAt(Person p): boolean&lt;/div&gt;&lt;div&gt;&lt;br&gt;&lt;/div&gt;&lt;div&gt;+ drink(BottleWithLiquid b)&lt;/div&gt;" style="text;strokeColor=none;fillColor=none;align=left;verticalAlign=top;spacingLeft=4;spacingRight=4;overflow=hidden;rotatable=0;points=[[0,0.5],[1,0.5]];portConstraint=eastwest;whiteSpace=wrap;html=1;" vertex="1" parent="dfD37ds1Ss6bj-lWqaT2-12">
          <mxGeometry y="118" width="280" height="302" as="geometry" />
        </mxCell>
        <mxCell id="dfD37ds1Ss6bj-lWqaT2-16" value="&lt;i&gt;&amp;lt;&amp;lt; Exception &amp;gt;&amp;gt;&lt;/i&gt;&lt;div&gt;NoSpaceException&lt;/div&gt;" style="swimlane;fontStyle=1;align=center;verticalAlign=top;childLayout=stackLayout;horizontal=1;startSize=50;horizontalStack=0;resizeParent=1;resizeParentMax=0;resizeLast=0;collapsible=1;marginBottom=0;whiteSpace=wrap;html=1;" vertex="1" parent="1">
          <mxGeometry x="1410" y="30" width="240" height="80" as="geometry" />
        </mxCell>
        <mxCell id="dfD37ds1Ss6bj-lWqaT2-19" value="+ NoSpaceException(String msg)" style="text;strokeColor=none;fillColor=none;align=left;verticalAlign=top;spacingLeft=4;spacingRight=4;overflow=hidden;rotatable=0;points=[[0,0.5],[1,0.5]];portConstraint=eastwest;whiteSpace=wrap;html=1;" vertex="1" parent="dfD37ds1Ss6bj-lWqaT2-16">
          <mxGeometry y="50" width="240" height="30" as="geometry" />
        </mxCell>
        <mxCell id="dfD37ds1Ss6bj-lWqaT2-20" value="&lt;i&gt;&amp;lt;&amp;lt; Exception &amp;gt;&amp;gt;&lt;/i&gt;&lt;div&gt;NoObjectInThisLocation&lt;/div&gt;" style="swimlane;fontStyle=1;align=center;verticalAlign=top;childLayout=stackLayout;horizontal=1;startSize=50;horizontalStack=0;resizeParent=1;resizeParentMax=0;resizeLast=0;collapsible=1;marginBottom=0;whiteSpace=wrap;html=1;" vertex="1" parent="1">
          <mxGeometry x="1410" y="148" width="240" height="76" as="geometry" />
        </mxCell>
        <mxCell id="dfD37ds1Ss6bj-lWqaT2-23" value="+&amp;nbsp;&lt;span style=&quot;text-align: center;&quot;&gt;NoObjectInThisLocation(String msg)&lt;/span&gt;" style="text;strokeColor=none;fillColor=none;align=left;verticalAlign=top;spacingLeft=4;spacingRight=4;overflow=hidden;rotatable=0;points=[[0,0.5],[1,0.5]];portConstraint=eastwest;whiteSpace=wrap;html=1;" vertex="1" parent="dfD37ds1Ss6bj-lWqaT2-20">
          <mxGeometry y="50" width="240" height="26" as="geometry" />
        </mxCell>
        <mxCell id="dfD37ds1Ss6bj-lWqaT2-24" style="edgeStyle=orthogonalEdgeStyle;rounded=0;orthogonalLoop=1;jettySize=auto;html=1;dashed=1;dashPattern=12 12;endArrow=open;endFill=0;" edge="1" parent="1" source="dfD37ds1Ss6bj-lWqaT2-15" target="dfD37ds1Ss6bj-lWqaT2-16">
          <mxGeometry relative="1" as="geometry">
            <Array as="points">
              <mxPoint x="1260" y="692" />
              <mxPoint x="1260" y="70" />
            </Array>
          </mxGeometry>
        </mxCell>
        <mxCell id="dfD37ds1Ss6bj-lWqaT2-25" style="edgeStyle=orthogonalEdgeStyle;rounded=0;orthogonalLoop=1;jettySize=auto;html=1;dashed=1;dashPattern=12 12;endArrow=open;endFill=0;" edge="1" parent="1" source="dfD37ds1Ss6bj-lWqaT2-15" target="dfD37ds1Ss6bj-lWqaT2-20">
          <mxGeometry relative="1" as="geometry">
            <Array as="points">
              <mxPoint x="1260" y="692" />
              <mxPoint x="1260" y="186" />
            </Array>
          </mxGeometry>
        </mxCell>
        <mxCell id="dfD37ds1Ss6bj-lWqaT2-28" value="send" style="text;html=1;align=center;verticalAlign=middle;resizable=0;points=[];autosize=1;strokeColor=none;fillColor=none;" vertex="1" parent="1">
          <mxGeometry x="1305" y="158" width="50" height="30" as="geometry" />
        </mxCell>
        <mxCell id="dfD37ds1Ss6bj-lWqaT2-29" value="send" style="text;html=1;align=center;verticalAlign=middle;resizable=0;points=[];autosize=1;strokeColor=none;fillColor=none;" vertex="1" parent="1">
          <mxGeometry x="1305" y="40" width="50" height="30" as="geometry" />
        </mxCell>
        <mxCell id="dfD37ds1Ss6bj-lWqaT2-31" value="&lt;i&gt;&amp;lt;&amp;lt; Interface &amp;gt;&amp;gt;&lt;/i&gt;&lt;div&gt;Speakable&lt;/div&gt;" style="swimlane;fontStyle=1;align=center;verticalAlign=top;childLayout=stackLayout;horizontal=1;startSize=39;horizontalStack=0;resizeParent=1;resizeParentMax=0;resizeLast=0;collapsible=1;marginBottom=0;whiteSpace=wrap;html=1;" vertex="1" parent="1">
          <mxGeometry x="1410" y="433" width="160" height="140" as="geometry" />
        </mxCell>
        <mxCell id="dfD37ds1Ss6bj-lWqaT2-34" value="+ say(Speach s)&lt;div&gt;+ explain(Action a)&lt;/div&gt;&lt;div&gt;+ askWhy(Action a)&lt;/div&gt;&lt;div&gt;+ askWhyNot(Action a)&lt;/div&gt;&lt;div&gt;+ agree()&lt;/div&gt;&lt;div&gt;+ disagree()&lt;/div&gt;" style="text;strokeColor=none;fillColor=none;align=left;verticalAlign=top;spacingLeft=4;spacingRight=4;overflow=hidden;rotatable=0;points=[[0,0.5],[1,0.5]];portConstraint=eastwest;whiteSpace=wrap;html=1;" vertex="1" parent="dfD37ds1Ss6bj-lWqaT2-31">
          <mxGeometry y="39" width="160" height="101" as="geometry" />
        </mxCell>
        <mxCell id="dfD37ds1Ss6bj-lWqaT2-36" value="&lt;i&gt;&amp;lt;&amp;lt; Interface &amp;gt;&amp;gt;&lt;/i&gt;&lt;div&gt;Action&lt;/div&gt;" style="swimlane;fontStyle=1;align=center;verticalAlign=top;childLayout=stackLayout;horizontal=1;startSize=39;horizontalStack=0;resizeParent=1;resizeParentMax=0;resizeLast=0;collapsible=1;marginBottom=0;whiteSpace=wrap;html=1;" vertex="1" parent="1">
          <mxGeometry x="1610" y="433" width="160" height="70" as="geometry" />
        </mxCell>
        <mxCell id="dfD37ds1Ss6bj-lWqaT2-37" value="+ run()" style="text;strokeColor=none;fillColor=none;align=left;verticalAlign=top;spacingLeft=4;spacingRight=4;overflow=hidden;rotatable=0;points=[[0,0.5],[1,0.5]];portConstraint=eastwest;whiteSpace=wrap;html=1;" vertex="1" parent="dfD37ds1Ss6bj-lWqaT2-36">
          <mxGeometry y="39" width="160" height="31" as="geometry" />
        </mxCell>
        <mxCell id="dfD37ds1Ss6bj-lWqaT2-40" style="edgeStyle=orthogonalEdgeStyle;rounded=0;orthogonalLoop=1;jettySize=auto;html=1;dashed=1;dashPattern=12 12;endArrow=block;endFill=0;" edge="1" parent="1" source="dfD37ds1Ss6bj-lWqaT2-38" target="dfD37ds1Ss6bj-lWqaT2-36">
          <mxGeometry relative="1" as="geometry" />
        </mxCell>
        <mxCell id="dfD37ds1Ss6bj-lWqaT2-38" value="&lt;i&gt;&amp;lt;&amp;lt; Anonymous classes &amp;gt;&amp;gt;&lt;/i&gt;&lt;div&gt;&lt;br&gt;&lt;/div&gt;" style="swimlane;fontStyle=1;align=center;verticalAlign=top;childLayout=stackLayout;horizontal=1;startSize=36;horizontalStack=0;resizeParent=1;resizeParentMax=0;resizeLast=0;collapsible=1;marginBottom=0;whiteSpace=wrap;html=1;" vertex="1" parent="1">
          <mxGeometry x="1600" y="573" width="180" height="36" as="geometry" />
        </mxCell>
        <mxCell id="dfD37ds1Ss6bj-lWqaT2-45" style="edgeStyle=orthogonalEdgeStyle;rounded=0;orthogonalLoop=1;jettySize=auto;html=1;" edge="1" parent="1" source="dfD37ds1Ss6bj-lWqaT2-41" target="dfD37ds1Ss6bj-lWqaT2-15">
          <mxGeometry relative="1" as="geometry">
            <Array as="points">
              <mxPoint x="1070" y="780" />
              <mxPoint x="1070" y="780" />
            </Array>
          </mxGeometry>
        </mxCell>
        <mxCell id="dfD37ds1Ss6bj-lWqaT2-79" style="edgeStyle=orthogonalEdgeStyle;rounded=0;orthogonalLoop=1;jettySize=auto;html=1;endArrow=open;endFill=0;" edge="1" parent="1" source="dfD37ds1Ss6bj-lWqaT2-41" target="dfD37ds1Ss6bj-lWqaT2-68">
          <mxGeometry relative="1" as="geometry">
            <Array as="points">
              <mxPoint x="1810" y="1010" />
            </Array>
          </mxGeometry>
        </mxCell>
        <mxCell id="dfD37ds1Ss6bj-lWqaT2-41" value="&lt;div&gt;Worker&lt;/div&gt;" style="swimlane;fontStyle=1;align=center;verticalAlign=top;childLayout=stackLayout;horizontal=1;startSize=30;horizontalStack=0;resizeParent=1;resizeParentMax=0;resizeLast=0;collapsible=1;marginBottom=0;whiteSpace=wrap;html=1;" vertex="1" parent="1">
          <mxGeometry x="930" y="820" width="280" height="370" as="geometry" />
        </mxCell>
        <mxCell id="dfD37ds1Ss6bj-lWqaT2-42" value="- role: WorkerRole&lt;div&gt;- onVacation: boolean&lt;/div&gt;&lt;div&gt;- currentWorkStage: WorkStage&lt;/div&gt;" style="text;align=left;verticalAlign=top;spacingLeft=4;spacingRight=4;overflow=hidden;rotatable=0;points=[[0,0.5],[1,0.5]];portConstraint=eastwest;whiteSpace=wrap;html=1;" vertex="1" parent="dfD37ds1Ss6bj-lWqaT2-41">
          <mxGeometry y="30" width="280" height="80" as="geometry" />
        </mxCell>
        <mxCell id="dfD37ds1Ss6bj-lWqaT2-43" value="" style="line;strokeWidth=1;fillColor=none;align=left;verticalAlign=middle;spacingTop=-1;spacingLeft=3;spacingRight=3;rotatable=0;labelPosition=right;points=[];portConstraint=eastwest;strokeColor=inherit;" vertex="1" parent="dfD37ds1Ss6bj-lWqaT2-41">
          <mxGeometry y="110" width="280" height="8" as="geometry" />
        </mxCell>
        <mxCell id="dfD37ds1Ss6bj-lWqaT2-44" value="+ Worker(String name, SoulState state, ArrayList&amp;lt;Item&amp;gt; items, itemsLimit, WorkerRole role, boolean onVacation, WorkStage currentWorkStage)&lt;div&gt;. . .&lt;/div&gt;&lt;div&gt;. . .&lt;/div&gt;&lt;div&gt;+ Worker(String name, int itemsLimit)&lt;/div&gt;&lt;div&gt;&lt;br&gt;&lt;/div&gt;&lt;div&gt;+ getRole(): WorkerRole&lt;/div&gt;&lt;div&gt;+ setRole()&lt;/div&gt;&lt;div&gt;+ isInVacation(): boolean&lt;/div&gt;&lt;div&gt;+ setVacationStatus(boolean b)&lt;/div&gt;&lt;div&gt;+ setVacationStatus(boolean b, Period p)&lt;/div&gt;&lt;div&gt;+ getCurrentWorkStage(): WorkStage&lt;/div&gt;&lt;div&gt;+ setCurrentWorkStage(Workstage ws)&lt;/div&gt;&lt;div&gt;+ printCurrentWorkStage()&lt;/div&gt;&lt;div&gt;&lt;br&gt;&lt;/div&gt;&lt;div&gt;&lt;br&gt;&lt;/div&gt;" style="text;strokeColor=none;fillColor=none;align=left;verticalAlign=top;spacingLeft=4;spacingRight=4;overflow=hidden;rotatable=0;points=[[0,0.5],[1,0.5]];portConstraint=eastwest;whiteSpace=wrap;html=1;" vertex="1" parent="dfD37ds1Ss6bj-lWqaT2-41">
          <mxGeometry y="118" width="280" height="252" as="geometry" />
        </mxCell>
        <mxCell id="dfD37ds1Ss6bj-lWqaT2-54" style="edgeStyle=orthogonalEdgeStyle;rounded=0;orthogonalLoop=1;jettySize=auto;html=1;" edge="1" parent="1" source="dfD37ds1Ss6bj-lWqaT2-46" target="dfD37ds1Ss6bj-lWqaT2-2">
          <mxGeometry relative="1" as="geometry" />
        </mxCell>
        <mxCell id="dfD37ds1Ss6bj-lWqaT2-46" value="&lt;div&gt;Item&lt;/div&gt;" style="swimlane;fontStyle=1;align=center;verticalAlign=top;childLayout=stackLayout;horizontal=1;startSize=30;horizontalStack=0;resizeParent=1;resizeParentMax=0;resizeLast=0;collapsible=1;marginBottom=0;whiteSpace=wrap;html=1;" vertex="1" parent="1">
          <mxGeometry x="230" y="30" width="280" height="240" as="geometry" />
        </mxCell>
        <mxCell id="dfD37ds1Ss6bj-lWqaT2-47" value="- location: Location&lt;div&gt;- state: ItemState&lt;/div&gt;" style="text;align=left;verticalAlign=top;spacingLeft=4;spacingRight=4;overflow=hidden;rotatable=0;points=[[0,0.5],[1,0.5]];portConstraint=eastwest;whiteSpace=wrap;html=1;" vertex="1" parent="dfD37ds1Ss6bj-lWqaT2-46">
          <mxGeometry y="30" width="280" height="50" as="geometry" />
        </mxCell>
        <mxCell id="dfD37ds1Ss6bj-lWqaT2-48" value="" style="line;strokeWidth=1;fillColor=none;align=left;verticalAlign=middle;spacingTop=-1;spacingLeft=3;spacingRight=3;rotatable=0;labelPosition=right;points=[];portConstraint=eastwest;strokeColor=inherit;" vertex="1" parent="dfD37ds1Ss6bj-lWqaT2-46">
          <mxGeometry y="80" width="280" height="8" as="geometry" />
        </mxCell>
        <mxCell id="dfD37ds1Ss6bj-lWqaT2-49" value="+ Item(String n, Location l, ItemState i)&lt;div&gt;+ Item(String s, Location l)&lt;/div&gt;&lt;div&gt;+ Item(String n, ItemState i)&lt;/div&gt;&lt;div&gt;+ Item(Strin n)&lt;/div&gt;&lt;div&gt;&lt;br&gt;&lt;/div&gt;&lt;div&gt;+ setLocation(Location l)&lt;/div&gt;&lt;div&gt;+ getLocation(): Location&lt;/div&gt;&lt;div&gt;+ getState(): ItemState&lt;/div&gt;&lt;div&gt;+ setState(ItemState is)&lt;/div&gt;&lt;div&gt;&lt;br&gt;&lt;/div&gt;&lt;div&gt;&lt;br&gt;&lt;/div&gt;" style="text;strokeColor=none;fillColor=none;align=left;verticalAlign=top;spacingLeft=4;spacingRight=4;overflow=hidden;rotatable=0;points=[[0,0.5],[1,0.5]];portConstraint=eastwest;whiteSpace=wrap;html=1;" vertex="1" parent="dfD37ds1Ss6bj-lWqaT2-46">
          <mxGeometry y="88" width="280" height="152" as="geometry" />
        </mxCell>
        <mxCell id="dfD37ds1Ss6bj-lWqaT2-59" style="edgeStyle=orthogonalEdgeStyle;rounded=0;orthogonalLoop=1;jettySize=auto;html=1;" edge="1" parent="1" source="dfD37ds1Ss6bj-lWqaT2-55" target="dfD37ds1Ss6bj-lWqaT2-2">
          <mxGeometry relative="1" as="geometry" />
        </mxCell>
        <mxCell id="dfD37ds1Ss6bj-lWqaT2-103" style="edgeStyle=orthogonalEdgeStyle;rounded=0;orthogonalLoop=1;jettySize=auto;html=1;endArrow=diamondThin;endFill=0;" edge="1" parent="1" source="dfD37ds1Ss6bj-lWqaT2-55" target="dfD37ds1Ss6bj-lWqaT2-7">
          <mxGeometry relative="1" as="geometry">
            <Array as="points">
              <mxPoint x="630" y="250" />
            </Array>
          </mxGeometry>
        </mxCell>
        <mxCell id="dfD37ds1Ss6bj-lWqaT2-55" value="&lt;div&gt;Location&lt;/div&gt;" style="swimlane;fontStyle=1;align=center;verticalAlign=top;childLayout=stackLayout;horizontal=1;startSize=30;horizontalStack=0;resizeParent=1;resizeParentMax=0;resizeLast=0;collapsible=1;marginBottom=0;whiteSpace=wrap;html=1;" vertex="1" parent="1">
          <mxGeometry x="570" y="440" width="280" height="300" as="geometry" />
        </mxCell>
        <mxCell id="dfD37ds1Ss6bj-lWqaT2-56" value="- souls: ArrayList&amp;lt;Soul&amp;gt;&lt;div&gt;- items: ArrayList&amp;lt;Item&amp;gt;&lt;/div&gt;" style="text;align=left;verticalAlign=top;spacingLeft=4;spacingRight=4;overflow=hidden;rotatable=0;points=[[0,0.5],[1,0.5]];portConstraint=eastwest;whiteSpace=wrap;html=1;" vertex="1" parent="dfD37ds1Ss6bj-lWqaT2-55">
          <mxGeometry y="30" width="280" height="50" as="geometry" />
        </mxCell>
        <mxCell id="dfD37ds1Ss6bj-lWqaT2-57" value="" style="line;strokeWidth=1;fillColor=none;align=left;verticalAlign=middle;spacingTop=-1;spacingLeft=3;spacingRight=3;rotatable=0;labelPosition=right;points=[];portConstraint=eastwest;strokeColor=inherit;" vertex="1" parent="dfD37ds1Ss6bj-lWqaT2-55">
          <mxGeometry y="80" width="280" height="8" as="geometry" />
        </mxCell>
        <mxCell id="dfD37ds1Ss6bj-lWqaT2-58" value="+ Location(String n, ArrayList,Item&amp;gt;, ArrayList&amp;lt;Soul&amp;gt;)&lt;div&gt;+ Location(String n)&lt;/div&gt;&lt;div&gt;&lt;br&gt;&lt;/div&gt;&lt;div&gt;+ getSouls(): ArrayList&amp;lt;Soul&amp;gt;&lt;/div&gt;&lt;div&gt;+ addSoul(Soul s)&lt;/div&gt;&lt;div&gt;+ getItems(): ArrayList&amp;lt;Item&amp;gt;&lt;/div&gt;&lt;div&gt;+ addItem(Item i)&lt;/div&gt;&lt;div&gt;+ removeItem(Item i)&lt;/div&gt;&lt;div&gt;+ removeSoul(Soul s)&lt;/div&gt;&lt;div&gt;+ clearSouls()&lt;/div&gt;&lt;div&gt;+ clearItems()&lt;/div&gt;&lt;div&gt;+ clear()&lt;br&gt;&lt;div&gt;&lt;br&gt;&lt;/div&gt;&lt;div&gt;&lt;br&gt;&lt;/div&gt;&lt;/div&gt;" style="text;strokeColor=none;fillColor=none;align=left;verticalAlign=top;spacingLeft=4;spacingRight=4;overflow=hidden;rotatable=0;points=[[0,0.5],[1,0.5]];portConstraint=eastwest;whiteSpace=wrap;html=1;" vertex="1" parent="dfD37ds1Ss6bj-lWqaT2-55">
          <mxGeometry y="88" width="280" height="212" as="geometry" />
        </mxCell>
        <mxCell id="dfD37ds1Ss6bj-lWqaT2-60" value="&lt;i&gt;&amp;lt;&amp;lt; Enum &amp;gt;&amp;gt;&lt;/i&gt;&lt;div&gt;SoulState&lt;/div&gt;" style="swimlane;fontStyle=1;align=center;verticalAlign=top;childLayout=stackLayout;horizontal=1;startSize=40;horizontalStack=0;resizeParent=1;resizeParentMax=0;resizeLast=0;collapsible=1;marginBottom=0;whiteSpace=wrap;html=1;" vertex="1" parent="1">
          <mxGeometry x="1410" y="260" width="160" height="120" as="geometry" />
        </mxCell>
        <mxCell id="dfD37ds1Ss6bj-lWqaT2-61" value="+ NORMAL&lt;div&gt;+ THIRST&lt;/div&gt;&lt;div&gt;+ HUNGRY&lt;/div&gt;&lt;div&gt;+ DRUNK&lt;/div&gt;" style="text;strokeColor=none;fillColor=none;align=left;verticalAlign=top;spacingLeft=4;spacingRight=4;overflow=hidden;rotatable=0;points=[[0,0.5],[1,0.5]];portConstraint=eastwest;whiteSpace=wrap;html=1;" vertex="1" parent="dfD37ds1Ss6bj-lWqaT2-60">
          <mxGeometry y="40" width="160" height="80" as="geometry" />
        </mxCell>
        <mxCell id="dfD37ds1Ss6bj-lWqaT2-62" value="&lt;i&gt;&amp;lt;&amp;lt; Enum &amp;gt;&amp;gt;&lt;/i&gt;&lt;div&gt;Period&lt;/div&gt;" style="swimlane;fontStyle=1;align=center;verticalAlign=top;childLayout=stackLayout;horizontal=1;startSize=40;horizontalStack=0;resizeParent=1;resizeParentMax=0;resizeLast=0;collapsible=1;marginBottom=0;whiteSpace=wrap;html=1;" vertex="1" parent="1">
          <mxGeometry x="1520" y="1040" width="160" height="120" as="geometry" />
        </mxCell>
        <mxCell id="dfD37ds1Ss6bj-lWqaT2-63" value="+ ALL_DAY&lt;div&gt;+ ALL_MORNING&lt;/div&gt;&lt;div&gt;+ ALL_EVENING&lt;/div&gt;&lt;div&gt;+ ALL_NIGHT&lt;/div&gt;" style="text;strokeColor=none;fillColor=none;align=left;verticalAlign=top;spacingLeft=4;spacingRight=4;overflow=hidden;rotatable=0;points=[[0,0.5],[1,0.5]];portConstraint=eastwest;whiteSpace=wrap;html=1;" vertex="1" parent="dfD37ds1Ss6bj-lWqaT2-62">
          <mxGeometry y="40" width="160" height="80" as="geometry" />
        </mxCell>
        <mxCell id="dfD37ds1Ss6bj-lWqaT2-64" value="&lt;i&gt;&amp;lt;&amp;lt; Enum &amp;gt;&amp;gt;&lt;/i&gt;&lt;div&gt;WorkerRole&lt;/div&gt;" style="swimlane;fontStyle=1;align=center;verticalAlign=top;childLayout=stackLayout;horizontal=1;startSize=40;horizontalStack=0;resizeParent=1;resizeParentMax=0;resizeLast=0;collapsible=1;marginBottom=0;whiteSpace=wrap;html=1;" vertex="1" parent="1">
          <mxGeometry x="1320" y="1040" width="160" height="130" as="geometry" />
        </mxCell>
        <mxCell id="dfD37ds1Ss6bj-lWqaT2-65" value="+ DUKE&lt;div&gt;+ BARON&lt;/div&gt;&lt;div&gt;+ UNRANKED&lt;/div&gt;" style="text;strokeColor=none;fillColor=none;align=left;verticalAlign=top;spacingLeft=4;spacingRight=4;overflow=hidden;rotatable=0;points=[[0,0.5],[1,0.5]];portConstraint=eastwest;whiteSpace=wrap;html=1;" vertex="1" parent="dfD37ds1Ss6bj-lWqaT2-64">
          <mxGeometry y="40" width="160" height="90" as="geometry" />
        </mxCell>
        <mxCell id="dfD37ds1Ss6bj-lWqaT2-68" value="&lt;i&gt;&amp;lt;&amp;lt; Enum &amp;gt;&amp;gt;&lt;/i&gt;&lt;div&gt;WorkStage&lt;/div&gt;" style="swimlane;fontStyle=1;align=center;verticalAlign=top;childLayout=stackLayout;horizontal=1;startSize=40;horizontalStack=0;resizeParent=1;resizeParentMax=0;resizeLast=0;collapsible=1;marginBottom=0;whiteSpace=wrap;html=1;" vertex="1" parent="1">
          <mxGeometry x="1730" y="1040" width="160" height="90" as="geometry" />
        </mxCell>
        <mxCell id="dfD37ds1Ss6bj-lWqaT2-69" value="+ ESCORT&lt;div&gt;+ DO_NOTHING&lt;/div&gt;" style="text;strokeColor=none;fillColor=none;align=left;verticalAlign=top;spacingLeft=4;spacingRight=4;overflow=hidden;rotatable=0;points=[[0,0.5],[1,0.5]];portConstraint=eastwest;whiteSpace=wrap;html=1;" vertex="1" parent="dfD37ds1Ss6bj-lWqaT2-68">
          <mxGeometry y="40" width="160" height="50" as="geometry" />
        </mxCell>
        <mxCell id="dfD37ds1Ss6bj-lWqaT2-70" value="&lt;b&gt;&lt;i&gt;&amp;lt;&amp;lt; record &amp;gt;&amp;gt;&lt;/i&gt;&lt;/b&gt;&lt;div&gt;&lt;b&gt;Speach&lt;/b&gt;&lt;/div&gt;" style="swimlane;fontStyle=0;childLayout=stackLayout;horizontal=1;startSize=40;horizontalStack=0;resizeParent=1;resizeParentMax=0;resizeLast=0;collapsible=1;marginBottom=0;whiteSpace=wrap;html=1;" vertex="1" parent="1">
          <mxGeometry x="1600" y="627.5" width="140" height="92" as="geometry" />
        </mxCell>
        <mxCell id="dfD37ds1Ss6bj-lWqaT2-71" value="+ author: Person" style="text;strokeColor=none;fillColor=none;align=left;verticalAlign=top;spacingLeft=4;spacingRight=4;overflow=hidden;rotatable=0;points=[[0,0.5],[1,0.5]];portConstraint=eastwest;whiteSpace=wrap;html=1;" vertex="1" parent="dfD37ds1Ss6bj-lWqaT2-70">
          <mxGeometry y="40" width="140" height="26" as="geometry" />
        </mxCell>
        <mxCell id="dfD37ds1Ss6bj-lWqaT2-72" value="+ text: String" style="text;strokeColor=none;fillColor=none;align=left;verticalAlign=top;spacingLeft=4;spacingRight=4;overflow=hidden;rotatable=0;points=[[0,0.5],[1,0.5]];portConstraint=eastwest;whiteSpace=wrap;html=1;" vertex="1" parent="dfD37ds1Ss6bj-lWqaT2-70">
          <mxGeometry y="66" width="140" height="26" as="geometry" />
        </mxCell>
        <mxCell id="dfD37ds1Ss6bj-lWqaT2-73" style="edgeStyle=orthogonalEdgeStyle;rounded=0;orthogonalLoop=1;jettySize=auto;html=1;endArrow=open;endFill=0;" edge="1" parent="1" source="dfD37ds1Ss6bj-lWqaT2-71" target="dfD37ds1Ss6bj-lWqaT2-31">
          <mxGeometry relative="1" as="geometry">
            <Array as="points">
              <mxPoint x="1500" y="620" />
              <mxPoint x="1500" y="620" />
            </Array>
            <mxPoint x="1830" y="747" as="targetPoint" />
          </mxGeometry>
        </mxCell>
        <mxCell id="dfD37ds1Ss6bj-lWqaT2-74" style="edgeStyle=orthogonalEdgeStyle;rounded=0;orthogonalLoop=1;jettySize=auto;html=1;endArrow=open;endFill=0;" edge="1" parent="1" source="dfD37ds1Ss6bj-lWqaT2-10" target="dfD37ds1Ss6bj-lWqaT2-60">
          <mxGeometry relative="1" as="geometry" />
        </mxCell>
        <mxCell id="dfD37ds1Ss6bj-lWqaT2-77" style="edgeStyle=orthogonalEdgeStyle;rounded=0;orthogonalLoop=1;jettySize=auto;html=1;endArrow=open;endFill=0;" edge="1" parent="1" source="dfD37ds1Ss6bj-lWqaT2-44" target="dfD37ds1Ss6bj-lWqaT2-64">
          <mxGeometry relative="1" as="geometry">
            <Array as="points">
              <mxPoint x="1400" y="1010" />
            </Array>
          </mxGeometry>
        </mxCell>
        <mxCell id="dfD37ds1Ss6bj-lWqaT2-78" style="edgeStyle=orthogonalEdgeStyle;rounded=0;orthogonalLoop=1;jettySize=auto;html=1;endArrow=open;endFill=0;" edge="1" parent="1" source="dfD37ds1Ss6bj-lWqaT2-44" target="dfD37ds1Ss6bj-lWqaT2-62">
          <mxGeometry relative="1" as="geometry">
            <Array as="points">
              <mxPoint x="1600" y="1010" />
            </Array>
          </mxGeometry>
        </mxCell>
        <mxCell id="dfD37ds1Ss6bj-lWqaT2-81" style="edgeStyle=orthogonalEdgeStyle;rounded=0;orthogonalLoop=1;jettySize=auto;html=1;endArrow=diamondThin;endFill=0;" edge="1" parent="1" source="dfD37ds1Ss6bj-lWqaT2-55" target="dfD37ds1Ss6bj-lWqaT2-46">
          <mxGeometry relative="1" as="geometry">
            <Array as="points">
              <mxPoint x="630" y="230" />
            </Array>
          </mxGeometry>
        </mxCell>
        <mxCell id="dfD37ds1Ss6bj-lWqaT2-86" style="edgeStyle=orthogonalEdgeStyle;rounded=0;orthogonalLoop=1;jettySize=auto;html=1;" edge="1" parent="1" source="dfD37ds1Ss6bj-lWqaT2-82" target="dfD37ds1Ss6bj-lWqaT2-55">
          <mxGeometry relative="1" as="geometry" />
        </mxCell>
        <mxCell id="dfD37ds1Ss6bj-lWqaT2-82" value="&lt;div&gt;Room&lt;/div&gt;" style="swimlane;fontStyle=1;align=center;verticalAlign=top;childLayout=stackLayout;horizontal=1;startSize=30;horizontalStack=0;resizeParent=1;resizeParentMax=0;resizeLast=0;collapsible=1;marginBottom=0;whiteSpace=wrap;html=1;" vertex="1" parent="1">
          <mxGeometry x="570" y="814" width="280" height="250" as="geometry" />
        </mxCell>
        <mxCell id="dfD37ds1Ss6bj-lWqaT2-83" value="- soulsLimit: int&lt;div&gt;- itemsLimit: int&lt;/div&gt;" style="text;align=left;verticalAlign=top;spacingLeft=4;spacingRight=4;overflow=hidden;rotatable=0;points=[[0,0.5],[1,0.5]];portConstraint=eastwest;whiteSpace=wrap;html=1;" vertex="1" parent="dfD37ds1Ss6bj-lWqaT2-82">
          <mxGeometry y="30" width="280" height="50" as="geometry" />
        </mxCell>
        <mxCell id="dfD37ds1Ss6bj-lWqaT2-84" value="" style="line;strokeWidth=1;fillColor=none;align=left;verticalAlign=middle;spacingTop=-1;spacingLeft=3;spacingRight=3;rotatable=0;labelPosition=right;points=[];portConstraint=eastwest;strokeColor=inherit;" vertex="1" parent="dfD37ds1Ss6bj-lWqaT2-82">
          <mxGeometry y="80" width="280" height="8" as="geometry" />
        </mxCell>
        <mxCell id="dfD37ds1Ss6bj-lWqaT2-85" value="&lt;div&gt;&lt;div&gt;+ Room(String name, int itemsLiit, int soulsLimit)&lt;/div&gt;&lt;/div&gt;&lt;div&gt;...&lt;/div&gt;&lt;div&gt;&lt;br&gt;&lt;/div&gt;&lt;div&gt;+ getSoulsLimit(): int&lt;/div&gt;&lt;div&gt;+ getItemsLimit(): int&lt;/div&gt;&lt;div&gt;+ setItemsLimit(int i)&lt;/div&gt;&lt;div&gt;+ setSoulsLimit(int i)&lt;/div&gt;&lt;div&gt;&lt;br&gt;&lt;/div&gt;&lt;div&gt;+ addItem(Item i)&lt;/div&gt;&lt;div&gt;+ addSoul(Soul s)&lt;/div&gt;" style="text;strokeColor=none;fillColor=none;align=left;verticalAlign=top;spacingLeft=4;spacingRight=4;overflow=hidden;rotatable=0;points=[[0,0.5],[1,0.5]];portConstraint=eastwest;whiteSpace=wrap;html=1;" vertex="1" parent="dfD37ds1Ss6bj-lWqaT2-82">
          <mxGeometry y="88" width="280" height="162" as="geometry" />
        </mxCell>
        <mxCell id="dfD37ds1Ss6bj-lWqaT2-87" value="&lt;i&gt;&amp;lt;&amp;lt; Enum &amp;gt;&amp;gt;&lt;/i&gt;&lt;div&gt;ItemState&lt;/div&gt;" style="swimlane;fontStyle=1;align=center;verticalAlign=top;childLayout=stackLayout;horizontal=1;startSize=40;horizontalStack=0;resizeParent=1;resizeParentMax=0;resizeLast=0;collapsible=1;marginBottom=0;whiteSpace=wrap;html=1;" vertex="1" parent="1">
          <mxGeometry x="20" y="30" width="160" height="80" as="geometry" />
        </mxCell>
        <mxCell id="dfD37ds1Ss6bj-lWqaT2-88" value="+ NORMAL&lt;div&gt;+ HIDDEN&lt;/div&gt;&lt;div&gt;&lt;br&gt;&lt;/div&gt;" style="text;align=left;verticalAlign=top;spacingLeft=4;spacingRight=4;overflow=hidden;rotatable=0;points=[[0,0.5],[1,0.5]];portConstraint=eastwest;whiteSpace=wrap;html=1;" vertex="1" parent="dfD37ds1Ss6bj-lWqaT2-87">
          <mxGeometry y="40" width="160" height="40" as="geometry" />
        </mxCell>
        <mxCell id="dfD37ds1Ss6bj-lWqaT2-89" style="edgeStyle=orthogonalEdgeStyle;rounded=0;orthogonalLoop=1;jettySize=auto;html=1;endArrow=open;endFill=0;" edge="1" parent="1" source="dfD37ds1Ss6bj-lWqaT2-49" target="dfD37ds1Ss6bj-lWqaT2-87">
          <mxGeometry relative="1" as="geometry" />
        </mxCell>
        <mxCell id="dfD37ds1Ss6bj-lWqaT2-94" style="edgeStyle=orthogonalEdgeStyle;rounded=0;orthogonalLoop=1;jettySize=auto;html=1;" edge="1" parent="1" source="dfD37ds1Ss6bj-lWqaT2-90" target="dfD37ds1Ss6bj-lWqaT2-46">
          <mxGeometry relative="1" as="geometry" />
        </mxCell>
        <mxCell id="dfD37ds1Ss6bj-lWqaT2-102" style="edgeStyle=orthogonalEdgeStyle;rounded=0;orthogonalLoop=1;jettySize=auto;html=1;endArrow=open;endFill=0;" edge="1" parent="1" source="dfD37ds1Ss6bj-lWqaT2-90" target="dfD37ds1Ss6bj-lWqaT2-12">
          <mxGeometry relative="1" as="geometry">
            <Array as="points">
              <mxPoint x="740" y="390" />
              <mxPoint x="740" y="390" />
            </Array>
          </mxGeometry>
        </mxCell>
        <mxCell id="dfD37ds1Ss6bj-lWqaT2-90" value="&lt;div&gt;BottleWithLiquid&lt;/div&gt;" style="swimlane;fontStyle=1;align=center;verticalAlign=top;childLayout=stackLayout;horizontal=1;startSize=30;horizontalStack=0;resizeParent=1;resizeParentMax=0;resizeLast=0;collapsible=1;marginBottom=0;whiteSpace=wrap;html=1;" vertex="1" parent="1">
          <mxGeometry x="230" y="334" width="280" height="170" as="geometry" />
        </mxCell>
        <mxCell id="dfD37ds1Ss6bj-lWqaT2-91" value="- full: boolean" style="text;align=left;verticalAlign=top;spacingLeft=4;spacingRight=4;overflow=hidden;rotatable=0;points=[[0,0.5],[1,0.5]];portConstraint=eastwest;whiteSpace=wrap;html=1;" vertex="1" parent="dfD37ds1Ss6bj-lWqaT2-90">
          <mxGeometry y="30" width="280" height="30" as="geometry" />
        </mxCell>
        <mxCell id="dfD37ds1Ss6bj-lWqaT2-92" value="" style="line;strokeWidth=1;fillColor=none;align=left;verticalAlign=middle;spacingTop=-1;spacingLeft=3;spacingRight=3;rotatable=0;labelPosition=right;points=[];portConstraint=eastwest;strokeColor=inherit;" vertex="1" parent="dfD37ds1Ss6bj-lWqaT2-90">
          <mxGeometry y="60" width="280" height="8" as="geometry" />
        </mxCell>
        <mxCell id="dfD37ds1Ss6bj-lWqaT2-93" value="+ BottleWithLiquid(String name, Location l, ItemState i, boolean f)&lt;div&gt;...&lt;/div&gt;&lt;div&gt;&lt;br&gt;&lt;/div&gt;&lt;div&gt;+ isFull(): boolean&lt;/div&gt;&lt;div&gt;+ setFull(boolean f)&lt;/div&gt;" style="text;strokeColor=none;fillColor=none;align=left;verticalAlign=top;spacingLeft=4;spacingRight=4;overflow=hidden;rotatable=0;points=[[0,0.5],[1,0.5]];portConstraint=eastwest;whiteSpace=wrap;html=1;" vertex="1" parent="dfD37ds1Ss6bj-lWqaT2-90">
          <mxGeometry y="68" width="280" height="102" as="geometry" />
        </mxCell>
        <mxCell id="dfD37ds1Ss6bj-lWqaT2-99" value="" style="edgeStyle=orthogonalEdgeStyle;rounded=0;orthogonalLoop=1;jettySize=auto;html=1;" edge="1" parent="1" source="dfD37ds1Ss6bj-lWqaT2-95" target="dfD37ds1Ss6bj-lWqaT2-93">
          <mxGeometry relative="1" as="geometry">
            <Array as="points">
              <mxPoint x="370" y="530" />
              <mxPoint x="370" y="530" />
            </Array>
          </mxGeometry>
        </mxCell>
        <mxCell id="dfD37ds1Ss6bj-lWqaT2-104" style="edgeStyle=orthogonalEdgeStyle;rounded=0;orthogonalLoop=1;jettySize=auto;html=1;endArrow=open;endFill=0;" edge="1" parent="1" source="dfD37ds1Ss6bj-lWqaT2-95" target="dfD37ds1Ss6bj-lWqaT2-12">
          <mxGeometry relative="1" as="geometry">
            <Array as="points">
              <mxPoint x="520" y="660" />
              <mxPoint x="520" y="390" />
            </Array>
          </mxGeometry>
        </mxCell>
        <mxCell id="dfD37ds1Ss6bj-lWqaT2-95" value="&lt;div&gt;AlcoholicBottle&lt;/div&gt;" style="swimlane;fontStyle=1;align=center;verticalAlign=top;childLayout=stackLayout;horizontal=1;startSize=30;horizontalStack=0;resizeParent=1;resizeParentMax=0;resizeLast=0;collapsible=1;marginBottom=0;whiteSpace=wrap;html=1;" vertex="1" parent="1">
          <mxGeometry x="230" y="580" width="280" height="160" as="geometry" />
        </mxCell>
        <mxCell id="dfD37ds1Ss6bj-lWqaT2-96" value="- alcoPercent: byte" style="text;align=left;verticalAlign=top;spacingLeft=4;spacingRight=4;overflow=hidden;rotatable=0;points=[[0,0.5],[1,0.5]];portConstraint=eastwest;whiteSpace=wrap;html=1;" vertex="1" parent="dfD37ds1Ss6bj-lWqaT2-95">
          <mxGeometry y="30" width="280" height="30" as="geometry" />
        </mxCell>
        <mxCell id="dfD37ds1Ss6bj-lWqaT2-97" value="" style="line;strokeWidth=1;fillColor=none;align=left;verticalAlign=middle;spacingTop=-1;spacingLeft=3;spacingRight=3;rotatable=0;labelPosition=right;points=[];portConstraint=eastwest;strokeColor=inherit;" vertex="1" parent="dfD37ds1Ss6bj-lWqaT2-95">
          <mxGeometry y="60" width="280" height="8" as="geometry" />
        </mxCell>
        <mxCell id="dfD37ds1Ss6bj-lWqaT2-98" value="+ AlcoholicBottle(...)&lt;div&gt;...&lt;/div&gt;&lt;div&gt;&lt;br&gt;&lt;/div&gt;&lt;div&gt;+ getAlcoPercent(): byre&lt;/div&gt;&lt;div&gt;+ setAlcoPercent(byre s)&lt;/div&gt;" style="text;strokeColor=none;fillColor=none;align=left;verticalAlign=top;spacingLeft=4;spacingRight=4;overflow=hidden;rotatable=0;points=[[0,0.5],[1,0.5]];portConstraint=eastwest;whiteSpace=wrap;html=1;" vertex="1" parent="dfD37ds1Ss6bj-lWqaT2-95">
          <mxGeometry y="68" width="280" height="92" as="geometry" />
        </mxCell>
        <mxCell id="dfD37ds1Ss6bj-lWqaT2-101" style="edgeStyle=orthogonalEdgeStyle;rounded=0;orthogonalLoop=1;jettySize=auto;html=1;endArrow=diamondThin;endFill=0;" edge="1" parent="1" source="dfD37ds1Ss6bj-lWqaT2-49" target="dfD37ds1Ss6bj-lWqaT2-55">
          <mxGeometry relative="1" as="geometry">
            <Array as="points">
              <mxPoint x="540" y="250" />
              <mxPoint x="540" y="590" />
            </Array>
          </mxGeometry>
        </mxCell>
        <mxCell id="dfD37ds1Ss6bj-lWqaT2-105" style="edgeStyle=orthogonalEdgeStyle;rounded=0;orthogonalLoop=1;jettySize=auto;html=1;endArrow=diamondThin;endFill=0;" edge="1" parent="1" source="dfD37ds1Ss6bj-lWqaT2-49" target="dfD37ds1Ss6bj-lWqaT2-12">
          <mxGeometry relative="1" as="geometry">
            <Array as="points">
              <mxPoint x="190" y="260" />
              <mxPoint x="190" y="780" />
            </Array>
          </mxGeometry>
        </mxCell>
      </root>
    </mxGraphModel>
  </diagram>
</mxfile>
